<?xml version="1.0" encoding="UTF-8" standalone="no"?>
<!-- Created with Inkscape (http://www.inkscape.org/) -->

<svg
   width="39.5mm"
   height="29.5mm"
   viewBox="0 0 39.5 29.5"
   version="1.1"
   id="svg5"
   xmlns="http://www.w3.org/2000/svg"
   xmlns:svg="http://www.w3.org/2000/svg">
  <defs
     id="defs2">
    <marker
       style="overflow:visible"
       id="Arrow1Lstart"
       refX="0"
       refY="0"
       orient="auto">
      <path
         transform="matrix(0.8,0,0,0.8,10,0)"
         style="fill:context-stroke;fill-rule:evenodd;stroke:context-stroke;stroke-width:1pt"
         d="M 0,0 5,-5 -12.5,0 5,5 Z"
         id="path32974" />
    </marker>
  </defs>
  <g
     id="layer1"
     transform="translate(-41.25,-3.25)">
    <rect
       style="fill:none;stroke:#000000;stroke-width:1.5;stroke-miterlimit:4;stroke-dasharray:none;stroke-opacity:1;fill-opacity:1"
       id="rect40441"
       width="18"
       height="8"
       x="42"
       y="14"
       rx="1.7367122"
       ry="1.7367122" />
    <rect
       style="fill:none;stroke:#000000;stroke-width:1.5;stroke-miterlimit:4;stroke-dasharray:none;stroke-opacity:1;fill-opacity:1"
       id="use40455"
       width="18"
       height="8"
       x="62"
       y="14"
       rx="1.7367122"
       ry="1.7367122" />
    <rect
       style="fill:#000000;fill-opacity:1;stroke:#000000;stroke-width:0.499999"
       id="rect1094"
       width="3"
       height="3"
       x="54.5"
       y="6.5"
       rx="0.5"
       ry="0.5" />
    <rect
       style="fill:#000000;fill-opacity:1;stroke:#000000;stroke-width:0.499999"
       id="rect1117"
       width="3"
       height="3"
       x="64.5"
       y="6.5"
       rx="0.5"
       ry="0.5" />
    <rect
       style="fill:#000000;fill-opacity:1;stroke:#000000;stroke-width:0.499999"
       id="rect1119"
       width="3"
       height="3"
       x="44.5"
       y="16.5"
       rx="0.5"
       ry="0.5" />
    <rect
       style="fill:#000000;fill-opacity:1;stroke:#000000;stroke-width:0.499999"
       id="rect1121"
       width="3"
       height="3"
       x="74.5"
       y="16.5"
       rx="0.5"
       ry="0.5" />
    <rect
       style="fill:#000000;fill-opacity:1;stroke:#000000;stroke-width:0.499999"
       id="rect1239"
       width="3"
       height="3"
       x="54.5"
       y="16.5"
       rx="0.5"
       ry="0.5" />
    <rect
       style="fill:#000000;fill-opacity:1;stroke:#000000;stroke-width:0.499999"
       id="rect1241"
       width="3"
       height="3"
       x="64.5"
       y="16.5"
       rx="0.5"
       ry="0.5" />
    <rect
       style="fill:#000000;fill-opacity:1;stroke:#000000;stroke-width:0.499999"
       id="rect1243"
       width="3"
       height="3"
       x="54.5"
       y="26.5"
       rx="0.5"
       ry="0.5" />
    <rect
       style="fill:#000000;fill-opacity:1;stroke:#000000;stroke-width:0.499999"
       id="rect1245"
       width="3"
       height="3"
       x="64.5"
       y="26.5"
       rx="0.5"
       ry="0.5" />
  </g>
</svg>
